<?xml version="1.0" encoding="UTF-8" standalone="no"?>
<!-- Created with Inkscape (http://www.inkscape.org/) -->

<svg
   width="35mm"
   height="100mm"
   viewBox="0 0 35 100"
   version="1.1"
   id="svg1"
   xmlns="http://www.w3.org/2000/svg"
   xmlns:svg="http://www.w3.org/2000/svg">
  <defs
     id="defs1" />
  <g
     id="layer1"
     transform="translate(-352)">
    <path
       id="path7"
       style="stroke-width:0.2;stroke-linecap:round"
       d="m 369.49999,8.2006612 a 2.0080341,2.0080341 0 0 0 -2.00799,2.0079898 2.0080341,2.0080341 0 0 0 0.76142,1.57439 c -1.94394,2.44861 -5.47713,7.26931 -5.47713,9.96118 0,1.82573 0.72774,3.48157 1.90888,4.69317 -1.78029,0.13072 -3.17479,1.60776 -3.17479,3.42256 0,1.79377 1.36215,3.25769 3.11284,3.4176 l -1.22946,9.11081 c -0.17373,1.28733 -1.25307,2.84464 -2.19657,3.73353 -1.69595,1.59779 -2.65669,3.65291 -2.65668,5.80694 0,1.61643 0.53114,3.13236 1.45943,4.4387 h -0.3251 c -1.90135,0 -3.43198,1.53063 -3.43198,3.43198 0,1.90135 1.53063,3.43198 3.43198,3.43198 h 1.13334 c -0.38479,0.52744 -0.80485,1.00465 -1.20445,1.38111 -2.02149,1.90448 -3.16689,4.3542 -3.16685,6.92168 -2e-5,0.98763 0.16629,1.94361 0.47747,2.8507 a 14.91987,3.3465124 0 0 0 -2.33433,1.79739 v 12.27047 a 14.91987,3.3465124 0 0 0 14.91997,3.3465 14.91987,3.3465124 0 0 0 14.91997,-3.3465 14.91987,3.3465124 0 0 0 0,-0.002 v -12.26455 a 14.91987,3.3465124 0 0 0 0,-0.002 14.91987,3.3465124 0 0 0 -2.33431,-1.79739 c 0.3112,-0.90716 0.47748,-1.86325 0.47748,-2.85093 2e-5,-2.5675 -1.14538,-5.01722 -3.16686,-6.92169 -0.3996,-0.37647 -0.81967,-0.85367 -1.20447,-1.38113 h 1.13335 c 1.90136,0 3.43198,-1.53061 3.43198,-3.43197 0,-1.90135 -1.53062,-3.43198 -3.43198,-3.43198 h -0.32508 c 0.92828,-1.30634 1.45942,-2.82227 1.45941,-4.43869 2e-5,-2.15404 -0.96073,-4.20915 -2.65668,-5.80695 -0.94349,-0.88888 -2.02283,-2.44619 -2.19655,-3.73351 l -1.22948,-9.11172 c 1.75058,-0.16003 3.11284,-1.62392 3.11284,-3.41761 0,-1.8148 -1.39449,-3.29184 -3.17479,-3.42256 1.18115,-1.2116 1.90888,-2.86744 1.90888,-4.69317 0,-1.48929 -1.08142,-3.6304 -2.37693,-5.66074 l -2.95971,5.12653 -1.31074,-0.75671 3.33285,-5.77274 c -0.7718,-1.1085 -1.5469,-2.12197 -2.1626,-2.89752 a 2.0080341,2.0080341 0 0 0 0.76143,-1.57438 2.0080341,2.0080341 0 0 0 -2.00801,-2.0079998 z" />
  </g>
</svg>
