<?xml version="1.0" encoding="UTF-8" standalone="no"?>
<!-- Created with Inkscape (http://www.inkscape.org/) -->

<svg
   width="35mm"
   height="100mm"
   viewBox="0 0 35 100"
   version="1.1"
   id="svg1"
   xmlns="http://www.w3.org/2000/svg"
   xmlns:svg="http://www.w3.org/2000/svg">
  <defs
     id="defs1" />
  <g
     id="layer1"
     transform="translate(-51.858337,-290.51249)">
    <path
       id="path3"
       style="stroke-width:0.2;stroke-linecap:round"
       d="m 69.358339,292.61148 a 3.800444,2.9895413 0 0 0 -3.800423,2.9897 3.800444,2.9895413 0 0 0 0.427417,1.37739 h -2.513215 c -0.920731,0 -1.662099,0.74113 -1.662099,1.66185 v 2.51198 c 0,0.92073 0.741368,1.66185 1.662099,1.66185 h 2.514204 l -0.62019,1.90789 a 19.398059,19.398059 0 0 0 -3.126715,0.93834 l -1.081304,0.42667 a 0.84432783,0.84432783 0 0 0 -0.493323,1.04637 l 2.785027,8.5709 c -1.22592,0.5226 -2.081094,1.73678 -2.081094,3.15794 0,1.90135 1.530628,3.43198 3.431982,3.43198 h 0.706164 l -2.254531,16.70818 c -0.173724,1.28733 -1.253058,2.84464 -2.196556,3.73353 -1.695946,1.59779 -2.656944,3.65291 -2.656924,5.80694 -1.2e-5,1.61643 0.531123,3.13236 1.459411,4.4387 h -0.324837 c -1.901355,0 -3.432227,1.53063 -3.432227,3.43198 0,1.90135 1.530872,3.43198 3.432227,3.43198 h 1.133089 c -0.384793,0.52744 -0.804851,1.00465 -1.204451,1.38111 -2.02148,1.90448 -3.166885,4.3542 -3.166852,6.92168 -10e-6,0.98763 0.166294,1.94361 0.477466,2.8507 a 14.91987,3.3465124 0 0 0 -2.334321,1.79739 V 385.067 a 14.91987,3.3465124 0 0 0 14.919976,3.3465 14.91987,3.3465124 0 0 0 14.919968,-3.3465 14.91987,3.3465124 0 0 0 0,-0.002 v -12.26455 a 14.91987,3.3465124 0 0 0 0,-0.002 14.91987,3.3465124 0 0 0 -2.334309,-1.79739 c 0.311205,-0.90716 0.477467,-1.86325 0.477467,-2.85093 3e-5,-2.5675 -1.145129,-5.01722 -3.166613,-6.92169 -0.399599,-0.37647 -0.819657,-0.85367 -1.204451,-1.38113 h 1.13309 c 1.901351,0 3.431979,-1.53061 3.431979,-3.43197 0,-1.90135 -1.530628,-3.43198 -3.431979,-3.43198 h -0.324834 c 0.928288,-1.30634 1.459174,-2.82227 1.459164,-4.43869 2.5e-5,-2.15404 -0.960724,-4.20915 -2.65668,-5.80695 -0.943489,-0.88888 -2.022828,-2.44619 -2.196552,-3.73351 l -2.254786,-16.70993 h 0.706169 c 1.901356,0 3.432226,-1.53062 3.432226,-3.43197 0,-1.42117 -0.855172,-2.63534 -2.081088,-3.15794 l 2.784779,-8.5709 A 0.84432783,0.84432783 0 0 0 77.55881,306.0871 l -1.081305,-0.42667 a 19.398059,19.398059 0 0 0 -3.12696,-0.93834 l -0.619944,-1.90789 h 2.514208 c 0.920727,0 1.66185,-0.74112 1.66185,-1.66185 v -2.51193 c 0,-0.92072 -0.741123,-1.66185 -1.66185,-1.66185 h -2.513465 a 3.800444,2.9895413 0 0 0 0.427419,-1.37739 3.800444,2.9895413 0 0 0 -3.800424,-2.9897 z" />
  </g>
</svg>
