<?xml version="1.0" encoding="UTF-8" standalone="no"?>
<!-- Created with Inkscape (http://www.inkscape.org/) -->

<svg
   width="35mm"
   height="100mm"
   viewBox="0 0 35 100"
   version="1.1"
   id="svg1"
   xmlns="http://www.w3.org/2000/svg"
   xmlns:svg="http://www.w3.org/2000/svg">
  <defs
     id="defs1" />
  <g
     id="layer1"
     transform="translate(-487)">
    <path
       id="path11"
       style="stroke-width:0.2;stroke-linecap:round"
       d="m 504.49998,18.5988 a 9.4063093,9.4063093 0 0 0 -9.40615,9.40616 9.4063093,9.4063093 0 0 0 2.59002,6.48212 c -1.88472,0.019 -3.3963,1.54259 -3.3963,3.43199 0,1.90135 1.53088,3.43199 3.43224,3.43199 h 0.63727 l -1.13531,8.4133 c -0.20707,1.53442 -1.49344,3.3906 -2.61803,4.4501 -2.02149,1.90448 -3.16689,4.3542 -3.16687,6.92168 0,0.98763 0.16631,1.943613 0.47749,2.850703 a 14.91987,3.3465124 0 0 0 -2.33432,1.79739 v 12.27047 a 14.91987,3.3465124 0 0 0 14.91996,3.3465 14.91987,3.3465124 0 0 0 14.91998,-3.3465 14.91987,3.3465124 0 0 0 0,-0.002 v -12.26455 a 14.91987,3.3465124 0 0 0 0,-0.002 14.91987,3.3465124 0 0 0 -2.33432,-1.79739 c 0.31122,-0.90716 0.47748,-1.863253 0.47746,-2.850933 4e-5,-2.5675 -1.14512,-5.01722 -3.16659,-6.92169 -1.1246,-1.0595 -2.41121,-2.91569 -2.61828,-4.4501 l -1.13532,-8.41331 h 0.63753 c 1.90136,0 3.43198,-1.53063 3.43198,-3.43198 0,-1.8894 -1.51133,-3.41291 -3.39605,-3.43198 a 9.4063093,9.4063093 0 0 0 2.59003,-6.48207 9.4063093,9.4063093 0 0 0 -9.40642,-9.40617 z" />
  </g>
</svg>
