<?xml version="1.0" encoding="UTF-8" standalone="no"?>
<!-- Created with Inkscape (http://www.inkscape.org/) -->

<svg
   width="35mm"
   height="100mm"
   viewBox="0 0 35 100"
   version="1.1"
   id="svg1"
   xmlns="http://www.w3.org/2000/svg"
   xmlns:svg="http://www.w3.org/2000/svg">
  <defs
     id="defs1" />
  <g
     id="layer1"
     transform="translate(-307)">
    <path
       id="path8"
       style="stroke-width:0.2;stroke-linecap:round"
       d="m 324.49999,5.4098412 a 2.0080341,2.0080341 0 0 0 -2.008,2.00799 2.0080341,2.0080341 0 0 0 0.76688,1.57686 6.7237131,6.7237131 0 0 0 -5.38422,5.4466698 19.398059,19.398059 0 0 0 -0.49382,0.18707 l -1.08131,0.42667 a 0.84432783,0.84432783 0 0 0 -0.49308,1.04637 l 2.78478,8.5709 c -1.22592,0.5226 -2.08109,1.73678 -2.08109,3.15794 0,1.90135 1.53087,3.43197 3.43223,3.43197 h 0.32954 l -1.87816,13.91721 c -0.17373,1.28733 -1.25306,2.84464 -2.19655,3.73353 -1.69595,1.59779 -2.6567,3.65291 -2.65668,5.80694 -10e-6,1.61643 0.53087,3.13236 1.45916,4.4387 h -0.32483 c -1.90136,0 -3.43199,1.53063 -3.43199,3.43198 0,1.90135 1.53063,3.43198 3.43199,3.43198 h 1.13309 c -0.38479,0.52744 -0.80485,1.00465 -1.20445,1.38111 -2.02149,1.90448 -3.16664,4.3542 -3.16661,6.92168 0,0.98763 0.1663,1.94361 0.47747,2.8507 a 14.91987,3.3465124 0 0 0 -2.33432,1.79739 v 12.27047 a 14.91987,3.3465124 0 0 0 14.91997,3.3465 14.91987,3.3465124 0 0 0 14.91998,-3.3465 14.91987,3.3465124 0 0 0 0,-0.002 v -12.26455 a 14.91987,3.3465124 0 0 0 0,-0.002 14.91987,3.3465124 0 0 0 -2.33458,-1.79739 c 0.31123,-0.90716 0.47772,-1.86325 0.47772,-2.85093 4e-5,-2.5675 -1.14537,-5.01722 -3.16685,-6.92169 -0.39959,-0.37647 -0.81966,-0.85367 -1.20445,-1.38113 h 1.13309 c 1.90135,0 3.43222,-1.53061 3.43222,-3.43197 0,-1.90135 -1.53087,-3.43198 -3.43222,-3.43198 h -0.32484 c 0.92829,-1.30634 1.45943,-2.82227 1.45942,-4.43869 3e-5,-2.15404 -0.96097,-4.20915 -2.65693,-5.80695 -0.94349,-0.88888 -2.02283,-2.44619 -2.19655,-3.73351 l -1.87792,-13.91925 h 0.32954 c 1.90137,0 3.43199,-1.53062 3.43199,-3.43198 0,-1.42116 -0.85518,-2.63534 -2.08109,-3.15793 l 2.78502,-8.5709 a 0.84432783,0.84432783 0 0 0 -0.49332,-1.04632 l -1.08131,-0.42667 a 19.398059,19.398059 0 0 0 -0.49382,-0.18708 6.7237131,6.7237131 0 0 0 -5.38423,-5.4466598 2.0080341,2.0080341 0 0 0 0.76713,-1.57686 2.0080341,2.0080341 0 0 0 -2.008,-2.008 z" />
  </g>
</svg>
