<?xml version="1.0" encoding="UTF-8" standalone="no"?>
<!-- Created with Inkscape (http://www.inkscape.org/) -->

<svg
   width="35mm"
   height="100mm"
   viewBox="0 0 35 100"
   version="1.1"
   id="svg1"
   xmlns="http://www.w3.org/2000/svg"
   xmlns:svg="http://www.w3.org/2000/svg">
  <defs
     id="defs1" />
  <g
     id="layer1"
     transform="translate(-442)">
    <path
       id="path10"
       style="stroke-width:0.2;stroke-linecap:round"
       d="m 459.50005,11.543551 -0.34862,10e-4 c -0.67472,0.005 -1.33268,0.0251 -1.96762,0.0585 -0.19222,0.0101 -0.34787,0.17595 -0.34787,0.36844 v 2.34746 c 0,0.19249 -0.15586,0.35801 -0.34789,0.37141 -0.83568,0.0584 -1.62472,0.14043 -2.35191,0.24258 -0.19062,0.0268 -0.34491,-0.10559 -0.34491,-0.29808 v -2.34746 c 0,-0.19249 -0.15432,-0.32519 -0.34417,-0.29337 -2.46927,0.41395 -4.06775,1.07481 -4.06778,1.81944 v 3.0447 5.29254 2.13908 c 2e-5,0.53759 0.83331,1.03141 2.2258,1.42026 -0.0619,0.25863 -0.0947,0.5289 -0.0947,0.80702 0,1.79377 1.36216,3.25768 3.11284,3.41761 l -1.22947,9.1108 c -0.17373,1.28733 -1.25307,2.84464 -2.19655,3.73353 -1.69596,1.59779 -2.65671,3.6529 -2.6567,5.80694 0,1.61642 0.53114,3.13235 1.45943,4.43869 h -0.32509 c -1.90136,0 -3.43198,1.53063 -3.43198,3.43198 0,1.90136 1.53062,3.43199 3.43198,3.43199 h 1.13334 c -0.3848,0.52745 -0.80485,1.00464 -1.20444,1.3811 -2.02149,1.90449 -3.16689,4.3542 -3.16687,6.92169 -10e-6,0.98762 0.1663,1.9436 0.47747,2.8507 a 14.91987,3.3465124 0 0 0 -2.33433,1.79738 v 12.27049 a 14.91987,3.3465124 0 0 0 14.91999,3.34648 14.91987,3.3465124 0 0 0 14.91997,-3.34648 14.91987,3.3465124 0 0 0 0,-0.002 v -12.26453 a 14.91987,3.3465124 0 0 0 0,-0.002 14.91987,3.3465124 0 0 0 -2.33432,-1.79738 c 0.3112,-0.90715 0.47747,-1.86326 0.47747,-2.85094 2e-5,-2.56749 -1.14537,-5.0172 -3.16685,-6.92169 -0.39961,-0.37647 -0.81966,-0.85367 -1.20446,-1.38111 h 1.13334 c 1.90136,0 3.43198,-1.53062 3.43198,-3.43199 0,-1.90134 -1.53062,-3.43196 -3.43198,-3.43196 h -0.32509 c 0.92829,-1.30634 1.45943,-2.82228 1.45941,-4.4387 3e-5,-2.15404 -0.96072,-4.20915 -2.65668,-5.80694 -0.94348,-0.88889 -2.02282,-2.4462 -2.19654,-3.73353 l -1.22949,-9.1108 c 1.75058,-0.16004 3.11285,-1.62392 3.11285,-3.41762 0,-0.27811 -0.0328,-0.54839 -0.0947,-0.80701 1.3925,-0.38885 2.22578,-0.88267 2.22578,-1.42027 v -0.002 -2.13709 -5.29056 -0.002 -3.04272 -0.002 c 0,-0.74463 -1.5985,-1.40549 -4.06776,-1.81943 -0.18982,-0.0318 -0.34417,0.10088 -0.34417,0.29337 v 2.3477 c 0,0.19249 -0.15429,0.3246 -0.34491,0.29783 -0.7272,-0.10216 -1.51624,-0.18422 -2.35191,-0.24258 -0.19202,-0.0134 -0.34787,-0.17868 -0.34787,-0.37117 v -2.3477 c 0,-0.19249 -0.15567,-0.35835 -0.34789,-0.36845 -0.63495,-0.0333 -1.2929,-0.0531 -1.9676,-0.0582 -0.19249,-10e-4 -0.34863,-10e-4 -0.34863,-10e-4 z" />
  </g>
</svg>
