<?xml version="1.0" encoding="UTF-8" standalone="no"?>
<!-- Created with Inkscape (http://www.inkscape.org/) -->

<svg
   width="35mm"
   height="100mm"
   viewBox="0 0 35 100"
   version="1.1"
   id="svg1"
   xmlns="http://www.w3.org/2000/svg"
   xmlns:svg="http://www.w3.org/2000/svg">
  <defs
     id="defs1" />
  <g
     id="layer1"
     transform="translate(-532)">
    <path
       id="path23"
       style="fill:#ffffff;stroke:#999999;stroke-width:0.9;stroke-linecap:round;stroke-dasharray:none"
       d="m 549.49999,2.0989977 a 3.800444,2.9895413 0 0 0 -3.80042,2.98969 3.800444,2.9895413 0 0 0 0.42741,1.3774 h -2.51321 c -0.92073,0 -1.6621,0.74112 -1.6621,1.66185 v 2.5119803 c 0,0.92073 0.74137,1.66185 1.6621,1.66185 h 2.5142 l -0.62019,1.90789 a 19.398059,19.398059 0 0 0 -3.12671,0.93834 l -1.08131,0.42667 a 0.84432783,0.84432783 0 0 0 -0.49332,1.04637 l 2.78503,8.5709 c -1.22592,0.5226 -2.0811,1.73678 -2.0811,3.15794 0,1.90135 1.53063,3.43197 3.43198,3.43197 h 0.70617 l -2.25453,16.708177 c -0.17373,1.28733 -1.25306,2.84464 -2.19656,3.73353 -1.69594,1.59779 -2.65694,3.65291 -2.65692,5.80694 -1e-5,1.61643 0.53112,3.13236 1.45941,4.4387 h -0.32484 c -1.90135,0 -3.43223,1.53063 -3.43223,3.43198 0,1.90135 1.53088,3.43198 3.43223,3.43198 h 1.13309 c -0.38479,0.52744 -0.80485,1.00465 -1.20445,1.38111 -2.02148,1.90448 -3.16689,4.3542 -3.16685,6.92168 -10e-6,0.98763 0.16629,1.94361 0.47746,2.8507 a 14.91987,3.3465124 0 0 0 -2.33432,1.79739 v 12.27047 a 14.91987,3.3465124 0 0 0 14.91998,3.3465 14.91987,3.3465124 0 0 0 14.91997,-3.3465 14.91987,3.3465124 0 0 0 0,-0.002 v -12.26455 a 14.91987,3.3465124 0 0 0 0,-0.002 14.91987,3.3465124 0 0 0 -2.33431,-1.79739 c 0.3112,-0.90716 0.47746,-1.86325 0.47746,-2.85093 3e-5,-2.5675 -1.14512,-5.01722 -3.16661,-6.92169 -0.3996,-0.37647 -0.81966,-0.85367 -1.20445,-1.38113 h 1.13309 c 1.90135,0 3.43198,-1.53061 3.43198,-3.43197 0,-1.90135 -1.53063,-3.43198 -3.43198,-3.43198 h -0.32483 c 0.92828,-1.30634 1.45917,-2.82227 1.45916,-4.43869 3e-5,-2.15404 -0.96072,-4.20915 -2.65668,-5.80695 -0.94349,-0.88888 -2.02283,-2.44619 -2.19655,-3.73351 l -2.25479,-16.709917 h 0.70617 c 1.90136,0 3.43223,-1.53062 3.43223,-3.43198 0,-1.42116 -0.85517,-2.63534 -2.08109,-3.15793 l 2.78478,-8.5709 a 0.84432783,0.84432783 0 0 0 -0.49308,-1.04637 l -1.08131,-0.42667 a 19.398059,19.398059 0 0 0 -3.12696,-0.93834 l -0.61994,-1.9079 h 2.51421 c 0.92073,0 1.66185,-0.74112 1.66185,-1.66184 V 8.1279377 c 0,-0.92073 -0.74112,-1.66185 -1.66185,-1.66185 h -2.51347 a 3.800444,2.9895413 0 0 0 0.42742,-1.3774 3.800444,2.9895413 0 0 0 -3.80042,-2.98969 z" />
  </g>
</svg>
