<?xml version="1.0" encoding="UTF-8" standalone="no"?>
<!-- Created with Inkscape (http://www.inkscape.org/) -->

<svg
   width="46.599499mm"
   height="100.37419mm"
   viewBox="0 0 46.599499 100.37419"
   version="1.1"
   id="svg1"
   xmlns="http://www.w3.org/2000/svg"
   xmlns:svg="http://www.w3.org/2000/svg">
  <defs
     id="defs1" />
  <g
     id="layer1"
     transform="translate(-667,0.37417605)">
    <path
       id="path20"
       style="fill:#ffffff;stroke:#999999;stroke-width:0.9;stroke-linecap:round;stroke-dasharray:none"
       d="m 694.65568,12.051392 c -0.45681,0.0169 -0.91742,0.37698 -1.05554,0.81147 l -1.26292,3.97288 -7.32805,1.00375 c -0.78821,0.10797 -1.41806,0.84334 -1.51393,1.63261 -0.67706,5.57412 -5.24248,9.950317 -10.90521,10.331357 -0.42863,0.0288 -0.77754,0.37537 -0.77754,0.80504 v 7.58424 a 0.77367477,0.77367477 0 0 0 0.77803,0.77357 l 8.99211,-0.0498 a 2.3337322,2.3337322 0 0 0 2.20029,-1.4505 1.6835522,1.6835522 0 0 1 2.1413,-0.98293 l 0.15039,0.054 -4.57944,14.40633 a 1.5785042,1.5785042 0 0 0 0.99632,1.9728 c -1.11831,0.56444 -1.88162,1.72247 -1.88162,3.06527 0,1.90136 1.53062,3.43199 3.43197,3.43199 h 1.13309 c -0.38482,0.52748 -0.80484,1.00464 -1.20445,1.3811 -2.02148,1.90449 -3.16664,4.3542 -3.16662,6.92169 0,0.98762 0.16631,1.9436 0.47749,2.8507 a 14.91987,3.3465124 0 0 0 -2.33432,1.79739 v 12.27048 a 14.91987,3.3465124 0 0 0 14.91996,3.34648 14.91987,3.3465124 0 0 0 14.91998,-3.34648 14.91987,3.3465124 0 0 0 0,-0.002 v -12.26453 a 14.91987,3.3465124 0 0 0 0,-0.002 14.91987,3.3465124 0 0 0 -2.33432,-1.79739 c 0.31121,-0.90715 0.47747,-1.86325 0.47746,-2.85094 4e-5,-2.56749 -1.14537,-5.0172 -3.16685,-6.92169 -0.39961,-0.37648 -0.81967,-0.85362 -1.20446,-1.38112 h 1.13335 c 1.90135,0 3.43198,-1.53062 3.43198,-3.43198 0,-1.3305 -0.74955,-2.47939 -1.85115,-3.04939 a 2.1581139,2.1581139 0 0 0 1.61972,-2.09002 V 25.049292 c 0,-6.92045 -5.34308,-12.54711 -12.14585,-12.99671 -0.0303,-0.002 -0.0607,-0.002 -0.0913,-10e-4 z" />
  </g>
</svg>
